<mxfile host="app.diagrams.net" modified="2023-09-08T22:19:43.039Z" agent="Mozilla/5.0 (Windows NT 10.0; Win64; x64) AppleWebKit/537.36 (KHTML, like Gecko) Chrome/116.0.0.0 Safari/537.36" etag="zqQguoN1SMmezuvRd3aP" version="21.7.4" type="device">
  <diagram name="Page-1" id="BsBtJZdpCbDv1z-KSwcp">
    <mxGraphModel dx="824" dy="446" grid="1" gridSize="10" guides="0" tooltips="1" connect="0" arrows="1" fold="1" page="1" pageScale="1" pageWidth="850" pageHeight="1100" math="0" shadow="0">
      <root>
        <mxCell id="0" />
        <mxCell id="1" parent="0" />
        <mxCell id="kdKn8kybxeGl5Rz80cqv-15" value="" style="rounded=0;whiteSpace=wrap;html=1;" parent="1" vertex="1">
          <mxGeometry x="150" y="640" width="320" height="320" as="geometry" />
        </mxCell>
        <mxCell id="kdKn8kybxeGl5Rz80cqv-3" value="" style="ellipse;whiteSpace=wrap;html=1;aspect=fixed;fillColor=none;" parent="1" vertex="1">
          <mxGeometry x="210" y="700" width="210" height="210" as="geometry" />
        </mxCell>
        <mxCell id="PWxH9HgvDrEOuIeiDxhd-13" value="" style="rounded=0;whiteSpace=wrap;html=1;fillColor=none;" parent="1" vertex="1">
          <mxGeometry x="230" y="420" width="130" height="110" as="geometry" />
        </mxCell>
        <mxCell id="PWxH9HgvDrEOuIeiDxhd-4" value="" style="rounded=0;whiteSpace=wrap;html=1;" parent="1" vertex="1">
          <mxGeometry x="430" y="85" width="10" height="245" as="geometry" />
        </mxCell>
        <mxCell id="PWxH9HgvDrEOuIeiDxhd-5" value="" style="rounded=0;whiteSpace=wrap;html=1;" parent="1" vertex="1">
          <mxGeometry x="280" y="85" width="160" height="10" as="geometry" />
        </mxCell>
        <mxCell id="PWxH9HgvDrEOuIeiDxhd-9" value="" style="rounded=0;whiteSpace=wrap;html=1;rotation=0;" parent="1" vertex="1">
          <mxGeometry x="490" y="420" width="110" height="100.25" as="geometry" />
        </mxCell>
        <mxCell id="PWxH9HgvDrEOuIeiDxhd-10" value="" style="rounded=0;whiteSpace=wrap;html=1;" parent="1" vertex="1">
          <mxGeometry x="590" y="420" width="10" height="100" as="geometry" />
        </mxCell>
        <mxCell id="PWxH9HgvDrEOuIeiDxhd-12" value="5mm" style="text;html=1;align=center;verticalAlign=middle;resizable=0;points=[];autosize=1;strokeColor=none;fillColor=none;fontSize=6;" parent="1" vertex="1">
          <mxGeometry x="418" y="330" width="40" height="20" as="geometry" />
        </mxCell>
        <mxCell id="PWxH9HgvDrEOuIeiDxhd-34" value="" style="ellipse;whiteSpace=wrap;html=1;aspect=fixed;fillColor=#000000;" parent="1" vertex="1">
          <mxGeometry x="279" y="460" width="5" height="5" as="geometry" />
        </mxCell>
        <mxCell id="PWxH9HgvDrEOuIeiDxhd-35" value="" style="ellipse;whiteSpace=wrap;html=1;aspect=fixed;fillColor=#000000;" parent="1" vertex="1">
          <mxGeometry x="301" y="460" width="5" height="5" as="geometry" />
        </mxCell>
        <mxCell id="PWxH9HgvDrEOuIeiDxhd-36" value="" style="ellipse;whiteSpace=wrap;html=1;aspect=fixed;fillColor=#000000;" parent="1" vertex="1">
          <mxGeometry x="301" y="485" width="5" height="5" as="geometry" />
        </mxCell>
        <mxCell id="PWxH9HgvDrEOuIeiDxhd-37" value="" style="ellipse;whiteSpace=wrap;html=1;aspect=fixed;fillColor=#000000;" parent="1" vertex="1">
          <mxGeometry x="279" y="485" width="5" height="5" as="geometry" />
        </mxCell>
        <mxCell id="PWxH9HgvDrEOuIeiDxhd-44" value="" style="endArrow=classic;html=1;rounded=0;entryX=1.038;entryY=0.524;entryDx=0;entryDy=0;entryPerimeter=0;" parent="1" target="PWxH9HgvDrEOuIeiDxhd-35" edge="1">
          <mxGeometry width="50" height="50" relative="1" as="geometry">
            <mxPoint x="400" y="440" as="sourcePoint" />
            <mxPoint x="430" y="360" as="targetPoint" />
          </mxGeometry>
        </mxCell>
        <mxCell id="PWxH9HgvDrEOuIeiDxhd-45" value="2.85mm&lt;br&gt;(diameter)" style="text;html=1;align=center;verticalAlign=middle;resizable=0;points=[];autosize=1;strokeColor=none;fillColor=none;" parent="1" vertex="1">
          <mxGeometry x="385" y="419" width="80" height="40" as="geometry" />
        </mxCell>
        <mxCell id="PWxH9HgvDrEOuIeiDxhd-46" value="" style="endArrow=classic;startArrow=classic;html=1;rounded=0;" parent="1" edge="1">
          <mxGeometry width="50" height="50" relative="1" as="geometry">
            <mxPoint x="440" y="78" as="sourcePoint" />
            <mxPoint x="280" y="78" as="targetPoint" />
          </mxGeometry>
        </mxCell>
        <mxCell id="PWxH9HgvDrEOuIeiDxhd-47" value="8.5cm" style="text;html=1;align=center;verticalAlign=middle;resizable=0;points=[];autosize=1;strokeColor=none;fillColor=none;" parent="1" vertex="1">
          <mxGeometry x="330" y="50" width="60" height="30" as="geometry" />
        </mxCell>
        <mxCell id="PWxH9HgvDrEOuIeiDxhd-50" value="" style="endArrow=classic;startArrow=classic;html=1;rounded=0;" parent="1" edge="1">
          <mxGeometry width="50" height="50" relative="1" as="geometry">
            <mxPoint x="330" y="800" as="sourcePoint" />
            <mxPoint x="330" y="640" as="targetPoint" />
          </mxGeometry>
        </mxCell>
        <mxCell id="PWxH9HgvDrEOuIeiDxhd-54" value="" style="ellipse;whiteSpace=wrap;html=1;aspect=fixed;fillColor=#000000;" parent="1" vertex="1">
          <mxGeometry x="550" y="460" width="5" height="5" as="geometry" />
        </mxCell>
        <mxCell id="PWxH9HgvDrEOuIeiDxhd-55" value="" style="ellipse;whiteSpace=wrap;html=1;aspect=fixed;fillColor=#000000;" parent="1" vertex="1">
          <mxGeometry x="530" y="480" width="5" height="5" as="geometry" />
        </mxCell>
        <mxCell id="PWxH9HgvDrEOuIeiDxhd-56" value="" style="ellipse;whiteSpace=wrap;html=1;aspect=fixed;fillColor=#000000;" parent="1" vertex="1">
          <mxGeometry x="530" y="460" width="5" height="5" as="geometry" />
        </mxCell>
        <mxCell id="PWxH9HgvDrEOuIeiDxhd-57" value="" style="ellipse;whiteSpace=wrap;html=1;aspect=fixed;fillColor=#000000;" parent="1" vertex="1">
          <mxGeometry x="550" y="480" width="5" height="5" as="geometry" />
        </mxCell>
        <mxCell id="PWxH9HgvDrEOuIeiDxhd-59" value="Side View" style="text;html=1;align=center;verticalAlign=middle;resizable=0;points=[];autosize=1;strokeColor=none;fillColor=none;" parent="1" vertex="1">
          <mxGeometry x="320" y="30" width="80" height="30" as="geometry" />
        </mxCell>
        <mxCell id="PWxH9HgvDrEOuIeiDxhd-60" value="Top View" style="text;html=1;align=center;verticalAlign=middle;resizable=0;points=[];autosize=1;strokeColor=none;fillColor=none;" parent="1" vertex="1">
          <mxGeometry x="260" y="390" width="70" height="30" as="geometry" />
        </mxCell>
        <mxCell id="PWxH9HgvDrEOuIeiDxhd-61" value="Bottom view" style="text;html=1;align=center;verticalAlign=middle;resizable=0;points=[];autosize=1;strokeColor=none;fillColor=none;" parent="1" vertex="1">
          <mxGeometry x="500" y="390" width="90" height="30" as="geometry" />
        </mxCell>
        <mxCell id="k1mLw7IAGcoa_0EAjVNv-1" value="" style="endArrow=classic;startArrow=classic;html=1;rounded=0;" parent="1" edge="1">
          <mxGeometry width="50" height="50" relative="1" as="geometry">
            <mxPoint x="360" y="540" as="sourcePoint" />
            <mxPoint x="230" y="540" as="targetPoint" />
          </mxGeometry>
        </mxCell>
        <mxCell id="k1mLw7IAGcoa_0EAjVNv-2" value="8.5cm" style="text;html=1;align=center;verticalAlign=middle;resizable=0;points=[];autosize=1;strokeColor=none;fillColor=none;" parent="1" vertex="1">
          <mxGeometry x="265" y="540" width="60" height="30" as="geometry" />
        </mxCell>
        <mxCell id="k1mLw7IAGcoa_0EAjVNv-3" value="" style="endArrow=classic;startArrow=classic;html=1;rounded=0;" parent="1" edge="1">
          <mxGeometry width="50" height="50" relative="1" as="geometry">
            <mxPoint x="220" y="530" as="sourcePoint" />
            <mxPoint x="220" y="420" as="targetPoint" />
          </mxGeometry>
        </mxCell>
        <mxCell id="k1mLw7IAGcoa_0EAjVNv-4" value="6cm" style="text;html=1;align=center;verticalAlign=middle;resizable=0;points=[];autosize=1;strokeColor=none;fillColor=none;" parent="1" vertex="1">
          <mxGeometry x="180" y="460" width="50" height="30" as="geometry" />
        </mxCell>
        <mxCell id="k1mLw7IAGcoa_0EAjVNv-6" value="" style="endArrow=classic;startArrow=classic;html=1;rounded=0;" parent="1" edge="1">
          <mxGeometry width="50" height="50" relative="1" as="geometry">
            <mxPoint x="450" y="330" as="sourcePoint" />
            <mxPoint x="450" y="88" as="targetPoint" />
          </mxGeometry>
        </mxCell>
        <mxCell id="k1mLw7IAGcoa_0EAjVNv-7" value="13cm" style="text;html=1;align=center;verticalAlign=middle;resizable=0;points=[];autosize=1;strokeColor=none;fillColor=none;" parent="1" vertex="1">
          <mxGeometry x="455" y="180" width="50" height="30" as="geometry" />
        </mxCell>
        <mxCell id="k1mLw7IAGcoa_0EAjVNv-8" value="" style="endArrow=classic;startArrow=classic;html=1;rounded=0;" parent="1" edge="1">
          <mxGeometry width="50" height="50" relative="1" as="geometry">
            <mxPoint x="600" y="543" as="sourcePoint" />
            <mxPoint x="480" y="543" as="targetPoint" />
          </mxGeometry>
        </mxCell>
        <mxCell id="k1mLw7IAGcoa_0EAjVNv-9" value="8.5cm" style="text;html=1;align=center;verticalAlign=middle;resizable=0;points=[];autosize=1;strokeColor=none;fillColor=none;" parent="1" vertex="1">
          <mxGeometry x="510" y="540" width="60" height="30" as="geometry" />
        </mxCell>
        <mxCell id="k1mLw7IAGcoa_0EAjVNv-10" value="5mm" style="text;html=1;align=center;verticalAlign=middle;resizable=0;points=[];autosize=1;strokeColor=none;fillColor=none;fontSize=6;" parent="1" vertex="1">
          <mxGeometry x="576" y="524" width="40" height="20" as="geometry" />
        </mxCell>
        <mxCell id="k1mLw7IAGcoa_0EAjVNv-11" value="" style="endArrow=classic;startArrow=classic;html=1;rounded=0;strokeWidth=0;" parent="1" edge="1">
          <mxGeometry width="50" height="50" relative="1" as="geometry">
            <mxPoint x="590" y="526" as="sourcePoint" />
            <mxPoint x="600" y="526" as="targetPoint" />
          </mxGeometry>
        </mxCell>
        <mxCell id="k1mLw7IAGcoa_0EAjVNv-12" value="" style="endArrow=classic;startArrow=classic;html=1;rounded=0;" parent="1" edge="1">
          <mxGeometry width="50" height="50" relative="1" as="geometry">
            <mxPoint x="610" y="520" as="sourcePoint" />
            <mxPoint x="610" y="420" as="targetPoint" />
          </mxGeometry>
        </mxCell>
        <mxCell id="k1mLw7IAGcoa_0EAjVNv-13" value="6cm" style="text;html=1;align=center;verticalAlign=middle;resizable=0;points=[];autosize=1;strokeColor=none;fillColor=none;" parent="1" vertex="1">
          <mxGeometry x="600" y="450" width="50" height="30" as="geometry" />
        </mxCell>
        <mxCell id="kdKn8kybxeGl5Rz80cqv-1" value="" style="endArrow=classic;startArrow=classic;html=1;rounded=0;strokeWidth=1;strokeColor=#FF0000;" parent="1" edge="1">
          <mxGeometry width="50" height="50" relative="1" as="geometry">
            <mxPoint x="281" y="485" as="sourcePoint" />
            <mxPoint x="281" y="465" as="targetPoint" />
          </mxGeometry>
        </mxCell>
        <mxCell id="kdKn8kybxeGl5Rz80cqv-2" value="14mm" style="text;html=1;align=center;verticalAlign=middle;resizable=0;points=[];autosize=1;strokeColor=none;fillColor=none;fontSize=10;" parent="1" vertex="1">
          <mxGeometry x="280" y="780" width="50" height="30" as="geometry" />
        </mxCell>
        <mxCell id="kdKn8kybxeGl5Rz80cqv-4" value="" style="ellipse;whiteSpace=wrap;html=1;aspect=fixed;fillColor=#000000;" parent="1" vertex="1">
          <mxGeometry x="260" y="750" width="20" height="20" as="geometry" />
        </mxCell>
        <mxCell id="kdKn8kybxeGl5Rz80cqv-5" value="" style="ellipse;whiteSpace=wrap;html=1;aspect=fixed;fillColor=#000000;" parent="1" vertex="1">
          <mxGeometry x="350" y="750" width="20" height="20" as="geometry" />
        </mxCell>
        <mxCell id="kdKn8kybxeGl5Rz80cqv-6" value="" style="ellipse;whiteSpace=wrap;html=1;aspect=fixed;fillColor=#000000;" parent="1" vertex="1">
          <mxGeometry x="260" y="840" width="20" height="20" as="geometry" />
        </mxCell>
        <mxCell id="kdKn8kybxeGl5Rz80cqv-7" value="" style="ellipse;whiteSpace=wrap;html=1;aspect=fixed;fillColor=#000000;" parent="1" vertex="1">
          <mxGeometry x="350" y="840" width="20" height="20" as="geometry" />
        </mxCell>
        <mxCell id="kdKn8kybxeGl5Rz80cqv-8" value="" style="endArrow=classic;startArrow=classic;html=1;rounded=0;" parent="1" edge="1">
          <mxGeometry width="50" height="50" relative="1" as="geometry">
            <mxPoint x="290" y="860" as="sourcePoint" />
            <mxPoint x="290" y="750" as="targetPoint" />
          </mxGeometry>
        </mxCell>
        <mxCell id="kdKn8kybxeGl5Rz80cqv-9" value="" style="endArrow=classic;startArrow=classic;html=1;rounded=0;" parent="1" edge="1">
          <mxGeometry width="50" height="50" relative="1" as="geometry">
            <mxPoint x="260" y="840" as="sourcePoint" />
            <mxPoint x="260" y="770" as="targetPoint" />
          </mxGeometry>
        </mxCell>
        <mxCell id="kdKn8kybxeGl5Rz80cqv-10" value="8mm" style="text;html=1;align=center;verticalAlign=middle;resizable=0;points=[];autosize=1;strokeColor=none;fillColor=none;fontSize=10;" parent="1" vertex="1">
          <mxGeometry x="220" y="790" width="50" height="30" as="geometry" />
        </mxCell>
        <mxCell id="kdKn8kybxeGl5Rz80cqv-11" value="" style="endArrow=classic;startArrow=classic;html=1;rounded=0;" parent="1" edge="1">
          <mxGeometry width="50" height="50" relative="1" as="geometry">
            <mxPoint x="380" y="850" as="sourcePoint" />
            <mxPoint x="380" y="760" as="targetPoint" />
          </mxGeometry>
        </mxCell>
        <mxCell id="kdKn8kybxeGl5Rz80cqv-12" value="11mm" style="text;html=1;align=center;verticalAlign=middle;resizable=0;points=[];autosize=1;strokeColor=none;fillColor=none;fontSize=10;" parent="1" vertex="1">
          <mxGeometry x="340" y="790" width="50" height="30" as="geometry" />
        </mxCell>
        <mxCell id="kdKn8kybxeGl5Rz80cqv-13" value="35mm" style="text;html=1;align=center;verticalAlign=middle;resizable=0;points=[];autosize=1;strokeColor=none;fillColor=none;" parent="1" vertex="1">
          <mxGeometry x="280" y="710" width="60" height="30" as="geometry" />
        </mxCell>
        <mxCell id="kdKn8kybxeGl5Rz80cqv-22" value="Top View" style="text;html=1;align=center;verticalAlign=middle;resizable=0;points=[];autosize=1;strokeColor=none;fillColor=none;" parent="1" vertex="1">
          <mxGeometry x="280" y="610" width="70" height="30" as="geometry" />
        </mxCell>
        <mxCell id="kdKn8kybxeGl5Rz80cqv-23" value="" style="endArrow=classic;startArrow=classic;html=1;rounded=0;" parent="1" edge="1">
          <mxGeometry width="50" height="50" relative="1" as="geometry">
            <mxPoint x="470" y="970" as="sourcePoint" />
            <mxPoint x="150" y="970" as="targetPoint" />
          </mxGeometry>
        </mxCell>
        <mxCell id="kdKn8kybxeGl5Rz80cqv-24" value="6cm" style="text;html=1;align=center;verticalAlign=middle;resizable=0;points=[];autosize=1;strokeColor=none;fillColor=none;" parent="1" vertex="1">
          <mxGeometry x="280" y="970" width="50" height="30" as="geometry" />
        </mxCell>
        <mxCell id="kdKn8kybxeGl5Rz80cqv-25" value="" style="endArrow=classic;startArrow=classic;html=1;rounded=0;" parent="1" edge="1">
          <mxGeometry width="50" height="50" relative="1" as="geometry">
            <mxPoint x="140" y="960" as="sourcePoint" />
            <mxPoint x="140" y="640" as="targetPoint" />
          </mxGeometry>
        </mxCell>
        <mxCell id="kdKn8kybxeGl5Rz80cqv-26" value="6cm" style="text;html=1;align=center;verticalAlign=middle;resizable=0;points=[];autosize=1;strokeColor=none;fillColor=none;" parent="1" vertex="1">
          <mxGeometry x="100" y="800" width="50" height="30" as="geometry" />
        </mxCell>
        <mxCell id="33aO2TNAjWirLoOw_Xwe-1" value="" style="rounded=0;whiteSpace=wrap;html=1;" parent="1" vertex="1">
          <mxGeometry x="65" y="82" width="110" height="248" as="geometry" />
        </mxCell>
        <mxCell id="33aO2TNAjWirLoOw_Xwe-2" value="" style="rounded=0;whiteSpace=wrap;html=1;" parent="1" vertex="1">
          <mxGeometry x="65" y="82" width="110" height="10" as="geometry" />
        </mxCell>
        <mxCell id="33aO2TNAjWirLoOw_Xwe-3" value="" style="ellipse;whiteSpace=wrap;html=1;aspect=fixed;fillColor=#000000;" parent="1" vertex="1">
          <mxGeometry x="85" y="112" width="10" height="10" as="geometry" />
        </mxCell>
        <mxCell id="33aO2TNAjWirLoOw_Xwe-4" value="" style="endArrow=classic;startArrow=classic;html=1;rounded=0;strokeColor=#000000;" parent="1" edge="1">
          <mxGeometry width="50" height="50" relative="1" as="geometry">
            <mxPoint x="182" y="330" as="sourcePoint" />
            <mxPoint x="182" y="82" as="targetPoint" />
          </mxGeometry>
        </mxCell>
        <mxCell id="33aO2TNAjWirLoOw_Xwe-6" value="" style="ellipse;whiteSpace=wrap;html=1;aspect=fixed;fillColor=#000000;" parent="1" vertex="1">
          <mxGeometry x="145" y="112" width="10" height="10" as="geometry" />
        </mxCell>
        <mxCell id="33aO2TNAjWirLoOw_Xwe-7" value="" style="ellipse;whiteSpace=wrap;html=1;aspect=fixed;fillColor=#000000;" parent="1" vertex="1">
          <mxGeometry x="145" y="172" width="10" height="10" as="geometry" />
        </mxCell>
        <mxCell id="33aO2TNAjWirLoOw_Xwe-12" value="4mm" style="text;html=1;align=center;verticalAlign=middle;resizable=0;points=[];autosize=1;strokeColor=none;fillColor=none;fontSize=6;" parent="1" vertex="1">
          <mxGeometry x="70" y="90" width="40" height="20" as="geometry" />
        </mxCell>
        <mxCell id="33aO2TNAjWirLoOw_Xwe-8" value="" style="ellipse;whiteSpace=wrap;html=1;aspect=fixed;fillColor=#000000;" parent="1" vertex="1">
          <mxGeometry x="85" y="172" width="10" height="10" as="geometry" />
        </mxCell>
        <mxCell id="33aO2TNAjWirLoOw_Xwe-9" value="" style="endArrow=classic;startArrow=classic;html=1;rounded=0;strokeColor=#FF0000;" parent="1" edge="1">
          <mxGeometry width="50" height="50" relative="1" as="geometry">
            <mxPoint x="150" y="178" as="sourcePoint" />
            <mxPoint x="150" y="118" as="targetPoint" />
          </mxGeometry>
        </mxCell>
        <mxCell id="33aO2TNAjWirLoOw_Xwe-10" value="&lt;font style=&quot;font-size: 7px;&quot;&gt;31mm&lt;/font&gt;" style="text;html=1;align=center;verticalAlign=middle;resizable=0;points=[];autosize=1;strokeColor=none;fillColor=none;fontSize=10;" parent="1" vertex="1">
          <mxGeometry x="141" y="132" width="40" height="30" as="geometry" />
        </mxCell>
        <mxCell id="33aO2TNAjWirLoOw_Xwe-11" value="" style="endArrow=classic;startArrow=classic;html=1;rounded=0;strokeWidth=0;" parent="1" edge="1">
          <mxGeometry width="50" height="50" relative="1" as="geometry">
            <mxPoint x="84" y="108" as="sourcePoint" />
            <mxPoint x="94" y="108" as="targetPoint" />
          </mxGeometry>
        </mxCell>
        <mxCell id="33aO2TNAjWirLoOw_Xwe-13" value="" style="endArrow=classic;startArrow=classic;html=1;rounded=0;strokeColor=#FF0000;" parent="1" edge="1">
          <mxGeometry width="50" height="50" relative="1" as="geometry">
            <mxPoint x="62" y="117" as="sourcePoint" />
            <mxPoint x="92" y="117" as="targetPoint" />
          </mxGeometry>
        </mxCell>
        <mxCell id="33aO2TNAjWirLoOw_Xwe-14" value="1.65cm" style="text;html=1;align=center;verticalAlign=middle;resizable=0;points=[];autosize=1;strokeColor=none;fillColor=none;fontSize=7;" parent="1" vertex="1">
          <mxGeometry x="53" y="116" width="50" height="20" as="geometry" />
        </mxCell>
        <mxCell id="33aO2TNAjWirLoOw_Xwe-15" value="" style="endArrow=classic;startArrow=classic;html=1;rounded=0;" parent="1" edge="1">
          <mxGeometry width="50" height="50" relative="1" as="geometry">
            <mxPoint x="175" y="340" as="sourcePoint" />
            <mxPoint x="65" y="340" as="targetPoint" />
          </mxGeometry>
        </mxCell>
        <mxCell id="33aO2TNAjWirLoOw_Xwe-16" value="6cm" style="text;html=1;align=center;verticalAlign=middle;resizable=0;points=[];autosize=1;strokeColor=none;fillColor=none;" parent="1" vertex="1">
          <mxGeometry x="95" y="340" width="50" height="30" as="geometry" />
        </mxCell>
        <mxCell id="33aO2TNAjWirLoOw_Xwe-17" value="Front View (x-ray)" style="text;html=1;align=center;verticalAlign=middle;resizable=0;points=[];autosize=1;strokeColor=none;fillColor=none;" parent="1" vertex="1">
          <mxGeometry x="65" y="30" width="120" height="30" as="geometry" />
        </mxCell>
        <mxCell id="33aO2TNAjWirLoOw_Xwe-18" value="" style="ellipse;whiteSpace=wrap;html=1;aspect=fixed;fillColor=#000000;" parent="1" vertex="1">
          <mxGeometry x="111" y="135" width="20" height="20" as="geometry" />
        </mxCell>
        <mxCell id="33aO2TNAjWirLoOw_Xwe-19" value="1cm" style="text;html=1;align=center;verticalAlign=middle;resizable=0;points=[];autosize=1;strokeColor=none;fillColor=none;fontSize=7;" parent="1" vertex="1">
          <mxGeometry x="100" y="117" width="40" height="20" as="geometry" />
        </mxCell>
        <mxCell id="33aO2TNAjWirLoOw_Xwe-20" value="" style="endArrow=classic;startArrow=classic;html=1;rounded=0;strokeWidth=0;" parent="1" edge="1">
          <mxGeometry width="50" height="50" relative="1" as="geometry">
            <mxPoint x="111" y="132" as="sourcePoint" />
            <mxPoint x="131" y="132" as="targetPoint" />
          </mxGeometry>
        </mxCell>
        <mxCell id="33aO2TNAjWirLoOw_Xwe-22" value="2.19cm" style="text;html=1;align=center;verticalAlign=middle;resizable=0;points=[];autosize=1;strokeColor=none;fillColor=none;fontSize=7;" parent="1" vertex="1">
          <mxGeometry x="66" y="150" width="50" height="20" as="geometry" />
        </mxCell>
        <mxCell id="33aO2TNAjWirLoOw_Xwe-21" value="" style="endArrow=classic;startArrow=classic;html=1;rounded=0;strokeColor=#FF0000;" parent="1" edge="1">
          <mxGeometry width="50" height="50" relative="1" as="geometry">
            <mxPoint x="90" y="177" as="sourcePoint" />
            <mxPoint x="120" y="147" as="targetPoint" />
          </mxGeometry>
        </mxCell>
        <mxCell id="33aO2TNAjWirLoOw_Xwe-23" value="" style="endArrow=classic;startArrow=classic;html=1;rounded=0;strokeWidth=0;" parent="1" edge="1">
          <mxGeometry width="50" height="50" relative="1" as="geometry">
            <mxPoint x="60" y="80" as="sourcePoint" />
            <mxPoint x="60" y="92" as="targetPoint" />
          </mxGeometry>
        </mxCell>
        <mxCell id="33aO2TNAjWirLoOw_Xwe-30" value="&lt;span style=&quot;font-size: 7px; font-weight: normal;&quot;&gt;1.45cm&lt;/span&gt;" style="text;html=1;align=center;verticalAlign=middle;resizable=0;points=[];autosize=1;strokeColor=none;fillColor=none;fontSize=7;fontStyle=1;fontColor=#000000;" parent="1" vertex="1">
          <mxGeometry x="110" y="90" width="50" height="20" as="geometry" />
        </mxCell>
        <mxCell id="33aO2TNAjWirLoOw_Xwe-24" value="&lt;font style=&quot;font-size: 10px;&quot;&gt;5mm&lt;/font&gt;" style="text;html=1;align=center;verticalAlign=middle;resizable=0;points=[];autosize=1;strokeColor=none;fillColor=none;" parent="1" vertex="1">
          <mxGeometry x="20" y="70" width="50" height="30" as="geometry" />
        </mxCell>
        <mxCell id="33aO2TNAjWirLoOw_Xwe-25" value="" style="endArrow=classic;startArrow=classic;html=1;rounded=0;strokeColor=#ff0000;" parent="1" edge="1">
          <mxGeometry width="50" height="50" relative="1" as="geometry">
            <mxPoint x="150" y="117" as="sourcePoint" />
            <mxPoint x="90" y="117" as="targetPoint" />
          </mxGeometry>
        </mxCell>
        <mxCell id="33aO2TNAjWirLoOw_Xwe-26" value="&lt;font style=&quot;font-size: 8px;&quot;&gt;31mm&lt;/font&gt;" style="text;html=1;align=center;verticalAlign=middle;resizable=0;points=[];autosize=1;strokeColor=none;fillColor=none;fontSize=10;" parent="1" vertex="1">
          <mxGeometry x="95" y="95" width="50" height="30" as="geometry" />
        </mxCell>
        <mxCell id="33aO2TNAjWirLoOw_Xwe-29" value="" style="endArrow=classic;startArrow=classic;html=1;rounded=0;strokeColor=#FF0000;" parent="1" edge="1">
          <mxGeometry width="50" height="50" relative="1" as="geometry">
            <mxPoint x="150" y="120" as="sourcePoint" />
            <mxPoint x="150" y="90" as="targetPoint" />
          </mxGeometry>
        </mxCell>
        <mxCell id="33aO2TNAjWirLoOw_Xwe-31" value="" style="ellipse;whiteSpace=wrap;html=1;aspect=fixed;fillColor=#000000;" parent="1" vertex="1">
          <mxGeometry x="116" y="270" width="10" height="10" as="geometry" />
        </mxCell>
        <mxCell id="33aO2TNAjWirLoOw_Xwe-38" value="8mm" style="text;html=1;align=center;verticalAlign=middle;resizable=0;points=[];autosize=1;strokeColor=none;fillColor=none;fontSize=6;fontColor=#000000;" parent="1" vertex="1">
          <mxGeometry x="100" y="280" width="40" height="20" as="geometry" />
        </mxCell>
        <mxCell id="33aO2TNAjWirLoOw_Xwe-33" value="&lt;font style=&quot;font-size: 8px;&quot;&gt;7.2cm&lt;/font&gt;" style="text;html=1;align=center;verticalAlign=middle;resizable=0;points=[];autosize=1;strokeColor=none;fillColor=none;fontSize=8;fontColor=#000000;" parent="1" vertex="1">
          <mxGeometry x="83" y="240" width="50" height="20" as="geometry" />
        </mxCell>
        <mxCell id="33aO2TNAjWirLoOw_Xwe-36" value="" style="endArrow=classic;startArrow=classic;html=1;rounded=0;strokeWidth=0;strokeColor=#000000;" parent="1" edge="1">
          <mxGeometry width="50" height="50" relative="1" as="geometry">
            <mxPoint x="116" y="284" as="sourcePoint" />
            <mxPoint x="126" y="284" as="targetPoint" />
          </mxGeometry>
        </mxCell>
        <mxCell id="33aO2TNAjWirLoOw_Xwe-39" value="" style="endArrow=classic;startArrow=classic;html=1;rounded=0;fontColor=#FF0000;strokeColor=#FF0000;" parent="1" edge="1">
          <mxGeometry width="50" height="50" relative="1" as="geometry">
            <mxPoint x="132" y="332" as="sourcePoint" />
            <mxPoint x="132" y="272" as="targetPoint" />
          </mxGeometry>
        </mxCell>
        <mxCell id="33aO2TNAjWirLoOw_Xwe-41" value="13cm" style="text;html=1;align=center;verticalAlign=middle;resizable=0;points=[];autosize=1;strokeColor=none;fillColor=none;fontSize=8;fontColor=#000000;" parent="1" vertex="1">
          <mxGeometry x="180" y="162" width="40" height="20" as="geometry" />
        </mxCell>
        <mxCell id="33aO2TNAjWirLoOw_Xwe-42" value="" style="endArrow=classic;startArrow=classic;html=1;rounded=0;strokeWidth=0;" parent="1" edge="1">
          <mxGeometry width="50" height="50" relative="1" as="geometry">
            <mxPoint x="430" y="333" as="sourcePoint" />
            <mxPoint x="440" y="333" as="targetPoint" />
          </mxGeometry>
        </mxCell>
        <mxCell id="33aO2TNAjWirLoOw_Xwe-44" value="5mm" style="text;html=1;align=center;verticalAlign=middle;resizable=0;points=[];autosize=1;strokeColor=none;fillColor=none;fontSize=9;" parent="1" vertex="1">
          <mxGeometry x="240" y="80" width="40" height="20" as="geometry" />
        </mxCell>
        <mxCell id="33aO2TNAjWirLoOw_Xwe-45" value="" style="endArrow=classic;startArrow=classic;html=1;rounded=0;strokeWidth=0;" parent="1" edge="1">
          <mxGeometry width="50" height="50" relative="1" as="geometry">
            <mxPoint x="275" y="85" as="sourcePoint" />
            <mxPoint x="275" y="95" as="targetPoint" />
          </mxGeometry>
        </mxCell>
        <mxCell id="zkEsj8cqpVbnqTSa8mRh-2" value="&lt;font style=&quot;font-size: 8px;&quot;&gt;1.1cm&lt;/font&gt;" style="text;html=1;align=center;verticalAlign=middle;resizable=0;points=[];autosize=1;strokeColor=none;fillColor=none;fontSize=8;" parent="1" vertex="1">
          <mxGeometry x="240" y="464" width="50" height="20" as="geometry" />
        </mxCell>
        <mxCell id="zkEsj8cqpVbnqTSa8mRh-28" value="" style="ellipse;whiteSpace=wrap;html=1;aspect=fixed;fillColor=#000000;" parent="1" vertex="1">
          <mxGeometry x="75" y="215" width="10" height="10" as="geometry" />
        </mxCell>
        <mxCell id="zkEsj8cqpVbnqTSa8mRh-30" value="" style="ellipse;whiteSpace=wrap;html=1;aspect=fixed;fillColor=#000000;" parent="1" vertex="1">
          <mxGeometry x="155" y="215" width="10" height="10" as="geometry" />
        </mxCell>
        <mxCell id="CTtEb93CEVFN5f37nLq_-1" value="" style="rounded=0;whiteSpace=wrap;html=1;" parent="1" vertex="1">
          <mxGeometry x="280" y="95" width="10" height="235" as="geometry" />
        </mxCell>
        <mxCell id="CTtEb93CEVFN5f37nLq_-2" value="5mm" style="text;html=1;align=center;verticalAlign=middle;resizable=0;points=[];autosize=1;strokeColor=none;fillColor=none;fontSize=6;" parent="1" vertex="1">
          <mxGeometry x="268" y="330" width="40" height="20" as="geometry" />
        </mxCell>
        <mxCell id="CTtEb93CEVFN5f37nLq_-3" value="" style="endArrow=classic;startArrow=classic;html=1;rounded=0;strokeWidth=0;" parent="1" edge="1">
          <mxGeometry width="50" height="50" relative="1" as="geometry">
            <mxPoint x="280" y="333" as="sourcePoint" />
            <mxPoint x="290" y="333" as="targetPoint" />
          </mxGeometry>
        </mxCell>
        <mxCell id="CTtEb93CEVFN5f37nLq_-4" value="" style="rounded=0;whiteSpace=wrap;html=1;" parent="1" vertex="1">
          <mxGeometry x="290" y="200" width="140" height="10" as="geometry" />
        </mxCell>
        <mxCell id="CTtEb93CEVFN5f37nLq_-5" value="" style="endArrow=classic;startArrow=classic;html=1;rounded=0;" parent="1" edge="1">
          <mxGeometry width="50" height="50" relative="1" as="geometry">
            <mxPoint x="296" y="198" as="sourcePoint" />
            <mxPoint x="296" y="98" as="targetPoint" />
          </mxGeometry>
        </mxCell>
        <mxCell id="CTtEb93CEVFN5f37nLq_-6" value="6cm" style="text;html=1;align=center;verticalAlign=middle;resizable=0;points=[];autosize=1;strokeColor=none;fillColor=none;fontSize=9;" parent="1" vertex="1">
          <mxGeometry x="291" y="130" width="40" height="20" as="geometry" />
        </mxCell>
        <mxCell id="CTtEb93CEVFN5f37nLq_-7" value="" style="rounded=0;whiteSpace=wrap;html=1;" parent="1" vertex="1">
          <mxGeometry x="480" y="420" width="10" height="100" as="geometry" />
        </mxCell>
        <mxCell id="PWxH9HgvDrEOuIeiDxhd-62" value="" style="endArrow=classic;html=1;rounded=0;entryX=-0.2;entryY=0.2;entryDx=0;entryDy=0;entryPerimeter=0;" parent="1" target="PWxH9HgvDrEOuIeiDxhd-56" edge="1">
          <mxGeometry width="50" height="50" relative="1" as="geometry">
            <mxPoint x="450" y="440" as="sourcePoint" />
            <mxPoint x="380" y="340" as="targetPoint" />
          </mxGeometry>
        </mxCell>
        <mxCell id="CTtEb93CEVFN5f37nLq_-8" value="" style="endArrow=classic;startArrow=classic;html=1;rounded=0;strokeWidth=1;" parent="1" edge="1">
          <mxGeometry width="50" height="50" relative="1" as="geometry">
            <mxPoint x="281" y="460" as="sourcePoint" />
            <mxPoint x="281" y="420" as="targetPoint" />
          </mxGeometry>
        </mxCell>
        <mxCell id="CTtEb93CEVFN5f37nLq_-11" value="" style="endArrow=classic;startArrow=classic;html=1;rounded=0;strokeWidth=1;" parent="1" edge="1">
          <mxGeometry width="50" height="50" relative="1" as="geometry">
            <mxPoint x="281" y="530" as="sourcePoint" />
            <mxPoint x="281" y="490" as="targetPoint" />
          </mxGeometry>
        </mxCell>
        <mxCell id="CTtEb93CEVFN5f37nLq_-13" value="&lt;font style=&quot;font-size: 8px;&quot;&gt;2.3cm (ish) (center to edge)&lt;/font&gt;" style="text;html=1;align=center;verticalAlign=middle;resizable=0;points=[];autosize=1;strokeColor=none;fillColor=none;fontSize=8;" parent="1" vertex="1">
          <mxGeometry x="272" y="428" width="120" height="20" as="geometry" />
        </mxCell>
        <mxCell id="CTtEb93CEVFN5f37nLq_-14" value="" style="endArrow=classic;startArrow=classic;html=1;rounded=0;strokeWidth=1;strokeColor=#FF0000;" parent="1" edge="1">
          <mxGeometry width="50" height="50" relative="1" as="geometry">
            <mxPoint x="281" y="463" as="sourcePoint" />
            <mxPoint x="231" y="463" as="targetPoint" />
          </mxGeometry>
        </mxCell>
        <mxCell id="CTtEb93CEVFN5f37nLq_-15" value="&lt;font style=&quot;font-size: 8px;&quot;&gt;2.3cm (ish) (center to edge)&lt;/font&gt;" style="text;html=1;align=center;verticalAlign=middle;resizable=0;points=[];autosize=1;strokeColor=none;fillColor=none;fontSize=8;" parent="1" vertex="1">
          <mxGeometry x="272" y="500" width="120" height="20" as="geometry" />
        </mxCell>
        <mxCell id="CTtEb93CEVFN5f37nLq_-16" value="&lt;font style=&quot;font-size: 8px;&quot;&gt;3.3cm (ish)&lt;/font&gt;" style="text;html=1;align=center;verticalAlign=middle;resizable=0;points=[];autosize=1;strokeColor=none;fillColor=none;fontSize=8;" parent="1" vertex="1">
          <mxGeometry x="225" y="445" width="60" height="20" as="geometry" />
        </mxCell>
        <mxCell id="CTtEb93CEVFN5f37nLq_-17" value="" style="endArrow=classic;startArrow=classic;html=1;rounded=0;strokeWidth=1;strokeColor=#FF0000;" parent="1" edge="1">
          <mxGeometry width="50" height="50" relative="1" as="geometry">
            <mxPoint x="363" y="488" as="sourcePoint" />
            <mxPoint x="303" y="488" as="targetPoint" />
          </mxGeometry>
        </mxCell>
        <mxCell id="CTtEb93CEVFN5f37nLq_-18" value="&lt;font style=&quot;font-size: 8px;&quot;&gt;3.3cm (ish)&lt;/font&gt;" style="text;html=1;align=center;verticalAlign=middle;resizable=0;points=[];autosize=1;strokeColor=none;fillColor=none;fontSize=8;" parent="1" vertex="1">
          <mxGeometry x="301" y="470" width="60" height="20" as="geometry" />
        </mxCell>
        <mxCell id="CTtEb93CEVFN5f37nLq_-19" value="These 4 holes should just be centered" style="text;html=1;align=center;verticalAlign=middle;resizable=0;points=[];autosize=1;strokeColor=none;fillColor=none;" parent="1" vertex="1">
          <mxGeometry x="170" y="560" width="230" height="30" as="geometry" />
        </mxCell>
        <mxCell id="CTtEb93CEVFN5f37nLq_-20" value="" style="curved=1;endArrow=classic;html=1;rounded=0;" parent="1" source="CTtEb93CEVFN5f37nLq_-19" edge="1">
          <mxGeometry width="50" height="50" relative="1" as="geometry">
            <mxPoint x="123.11000000000001" y="566.6700000000001" as="sourcePoint" />
            <mxPoint x="210" y="500" as="targetPoint" />
            <Array as="points">
              <mxPoint x="140" y="540" />
              <mxPoint x="160" y="510" />
            </Array>
          </mxGeometry>
        </mxCell>
        <mxCell id="xfxmJsIIRR2SlsZjl5RN-1" value="" style="endArrow=classic;startArrow=classic;html=1;rounded=0;strokeColor=#FF0000;" edge="1" parent="1">
          <mxGeometry width="50" height="50" relative="1" as="geometry">
            <mxPoint x="160" y="330" as="sourcePoint" />
            <mxPoint x="160" y="220" as="targetPoint" />
          </mxGeometry>
        </mxCell>
        <mxCell id="xfxmJsIIRR2SlsZjl5RN-2" value="5mm" style="text;html=1;align=center;verticalAlign=middle;resizable=0;points=[];autosize=1;strokeColor=none;fillColor=none;fontSize=9;" vertex="1" parent="1">
          <mxGeometry x="240" y="194" width="40" height="20" as="geometry" />
        </mxCell>
        <mxCell id="xfxmJsIIRR2SlsZjl5RN-3" value="" style="endArrow=classic;startArrow=classic;html=1;rounded=0;strokeWidth=0;" edge="1" parent="1">
          <mxGeometry width="50" height="50" relative="1" as="geometry">
            <mxPoint x="275" y="199" as="sourcePoint" />
            <mxPoint x="275" y="209" as="targetPoint" />
          </mxGeometry>
        </mxCell>
        <mxCell id="xfxmJsIIRR2SlsZjl5RN-4" value="" style="rounded=0;whiteSpace=wrap;html=1;" vertex="1" parent="1">
          <mxGeometry x="65" y="199" width="110" height="10" as="geometry" />
        </mxCell>
        <mxCell id="33aO2TNAjWirLoOw_Xwe-32" value="" style="endArrow=classic;startArrow=classic;html=1;rounded=0;fontColor=#FF0000;strokeColor=#FF0000;" parent="1" edge="1">
          <mxGeometry width="50" height="50" relative="1" as="geometry">
            <mxPoint x="121" y="275" as="sourcePoint" />
            <mxPoint x="121" y="155" as="targetPoint" />
          </mxGeometry>
        </mxCell>
        <mxCell id="xfxmJsIIRR2SlsZjl5RN-5" value="" style="endArrow=classic;startArrow=classic;html=1;rounded=0;strokeColor=#FF0000;" edge="1" parent="1">
          <mxGeometry width="50" height="50" relative="1" as="geometry">
            <mxPoint x="150" y="199" as="sourcePoint" />
            <mxPoint x="150" y="179" as="targetPoint" />
          </mxGeometry>
        </mxCell>
        <mxCell id="xfxmJsIIRR2SlsZjl5RN-7" value="&lt;span style=&quot;font-size: 7px; font-weight: normal;&quot;&gt;1.45cm&lt;/span&gt;" style="text;html=1;align=center;verticalAlign=middle;resizable=0;points=[];autosize=1;strokeColor=none;fillColor=none;fontSize=7;fontStyle=1;fontColor=#000000;" vertex="1" parent="1">
          <mxGeometry x="108" y="180" width="50" height="20" as="geometry" />
        </mxCell>
        <mxCell id="xfxmJsIIRR2SlsZjl5RN-8" value="28mm" style="text;html=1;align=center;verticalAlign=middle;resizable=0;points=[];autosize=1;strokeColor=none;fillColor=none;fontSize=6;fontColor=#000000;" vertex="1" parent="1">
          <mxGeometry x="121" y="290" width="40" height="20" as="geometry" />
        </mxCell>
        <mxCell id="xfxmJsIIRR2SlsZjl5RN-9" value="5.3cm" style="text;html=1;align=center;verticalAlign=middle;resizable=0;points=[];autosize=1;strokeColor=none;fillColor=none;fontSize=6;fontColor=#000000;" vertex="1" parent="1">
          <mxGeometry x="130" y="250" width="40" height="20" as="geometry" />
        </mxCell>
        <mxCell id="xfxmJsIIRR2SlsZjl5RN-10" value="" style="endArrow=classic;startArrow=classic;html=1;rounded=0;" edge="1" parent="1">
          <mxGeometry width="50" height="50" relative="1" as="geometry">
            <mxPoint x="420" y="330" as="sourcePoint" />
            <mxPoint x="420" y="210" as="targetPoint" />
          </mxGeometry>
        </mxCell>
        <mxCell id="xfxmJsIIRR2SlsZjl5RN-11" value="6cm" style="text;html=1;align=center;verticalAlign=middle;resizable=0;points=[];autosize=1;strokeColor=none;fillColor=none;fontSize=9;" vertex="1" parent="1">
          <mxGeometry x="384" y="260" width="40" height="20" as="geometry" />
        </mxCell>
        <mxCell id="xfxmJsIIRR2SlsZjl5RN-12" value="4mm" style="text;html=1;align=center;verticalAlign=middle;resizable=0;points=[];autosize=1;strokeColor=none;fillColor=none;fontSize=6;" vertex="1" parent="1">
          <mxGeometry x="60" y="226" width="40" height="20" as="geometry" />
        </mxCell>
        <mxCell id="xfxmJsIIRR2SlsZjl5RN-13" value="" style="endArrow=classic;startArrow=classic;html=1;rounded=0;strokeWidth=0;" edge="1" parent="1">
          <mxGeometry width="50" height="50" relative="1" as="geometry">
            <mxPoint x="75" y="229" as="sourcePoint" />
            <mxPoint x="85" y="229" as="targetPoint" />
          </mxGeometry>
        </mxCell>
        <mxCell id="xfxmJsIIRR2SlsZjl5RN-14" value="" style="endArrow=classic;startArrow=classic;html=1;rounded=0;strokeColor=#FF0000;strokeWidth=0;" edge="1" parent="1">
          <mxGeometry width="50" height="50" relative="1" as="geometry">
            <mxPoint x="174" y="220" as="sourcePoint" />
            <mxPoint x="164" y="220" as="targetPoint" />
          </mxGeometry>
        </mxCell>
        <mxCell id="xfxmJsIIRR2SlsZjl5RN-15" value="5mm" style="text;html=1;align=center;verticalAlign=middle;resizable=0;points=[];autosize=1;strokeColor=none;fillColor=none;fontSize=5;fontColor=#000000;" vertex="1" parent="1">
          <mxGeometry x="153" y="202" width="30" height="20" as="geometry" />
        </mxCell>
        <mxCell id="xfxmJsIIRR2SlsZjl5RN-16" value="" style="endArrow=classic;startArrow=classic;html=1;rounded=0;strokeColor=#FF0000;strokeWidth=0;" edge="1" parent="1">
          <mxGeometry width="50" height="50" relative="1" as="geometry">
            <mxPoint x="160" y="220" as="sourcePoint" />
            <mxPoint x="160" y="210" as="targetPoint" />
          </mxGeometry>
        </mxCell>
        <mxCell id="xfxmJsIIRR2SlsZjl5RN-17" value="5mm" style="text;html=1;align=center;verticalAlign=middle;resizable=0;points=[];autosize=1;strokeColor=none;fillColor=none;fontSize=5;fontColor=#000000;" vertex="1" parent="1">
          <mxGeometry x="155" y="214" width="30" height="20" as="geometry" />
        </mxCell>
      </root>
    </mxGraphModel>
  </diagram>
</mxfile>
